<svg xmlns="http://www.w3.org/2000/svg" width="24" height="24"
 viewBox="0 0 24 24" id="SVGRoot">
<path d="M 12.076172 2.609375 C 8.6629575 2.5268883 5.3412501 4.3553843 3.6484375 7.3828125 L 6.2675781 8.8476562 C 7.5356701 6.5798002 10.443704 5.2246005 12.996094 5.7109375 L 13.013672 5.7128906 L 13.033203 5.7167969 C 15.439808 6.1122299 17.530415 8.0886403 18.152344 10.445312 L 16.113281 10.884766 L 20.34375 14.066406 L 22.886719 9.4257812 L 21.105469 9.8085938 C 20.230605 6.2126356 17.222254 3.3783134 13.541016 2.7636719 C 13.054207 2.6718064 12.563774 2.6211588 12.076172 2.609375 z " />
<path d="M 3.65625 9.9335938 L 1.1132812 14.574219 L 2.8984375 14.189453 C 3.8022125 17.801551 6.7584591 20.588652 10.464844 21.242188 C 14.392877 21.934805 18.347483 20.090973 20.341797 16.636719 L 17.744141 15.136719 C 16.375268 17.507677 13.682482 18.762514 10.986328 18.287109 C 8.4748519 17.844268 6.4974447 15.983633 5.8515625 13.552734 L 7.8867188 13.115234 L 3.65625 9.9335938 z " />
</svg>
