<?xml version="1.0" standalone="no"?>
<!DOCTYPE svg PUBLIC "-//W3C//DTD SVG 20010904//EN"
 "http://www.w3.org/TR/2001/REC-SVG-20010904/DTD/svg10.dtd">
<svg version="1.0" xmlns="http://www.w3.org/2000/svg"
 width="700.000000pt" height="700.000000pt" viewBox="0 0 700.000000 700.000000"
 preserveAspectRatio="xMidYMid meet">
<metadata>
Created by potrace 1.14, written by Peter Selinger 2001-2017
</metadata>
<g transform="translate(0.000000,700.000000) scale(0.100000,-0.100000)"
fill="#000000" stroke="none">
<path d="M3290 6450 c-5 -3 -8 -960 -8 -2128 0 -1168 -2 -2125 -4 -2126 -33
-23 -123 -79 -158 -97 -25 -13 -47 -26 -50 -29 -19 -21 -266 -129 -389 -171
-130 -44 -265 -80 -361 -95 -19 -3 -42 -7 -50 -9 -58 -17 -329 -43 -457 -44
l-63 -1 0 -655 c0 -360 2 -655 4 -655 2 0 61 24 132 54 71 30 150 57 175 60
41 5 222 38 274 50 11 2 56 11 99 20 44 9 82 19 86 21 3 2 17 6 31 9 13 2 76
18 139 36 658 180 1276 498 1639 843 l53 51 52 -29 c207 -114 354 -278 372
-415 l6 -47 77 -23 c42 -13 81 -27 86 -30 11 -8 148 -50 162 -50 4 0 17 24 27
53 10 28 26 70 36 92 10 22 43 103 73 180 31 77 63 157 72 178 l16 38 -106
105 c-58 58 -105 107 -105 109 0 3 72 5 160 5 l160 0 0 2353 0 2352 -1086 0
c-597 0 -1090 -2 -1094 -5z m1582 -4752 c-60 -58 -62 -58 -141 13 l-44 39 119
0 119 0 -53 -52z"/>
</g>
</svg>
