<?xml version="1.0" encoding="utf-8"?><svg xmlns="http://www.w3.org/2000/svg" xmlns:xlink="http://www.w3.org/1999/xlink"><symbol viewBox="0 0 24 24" id="minus" xmlns="http://www.w3.org/2000/svg"><path d="M4 10h16v4H4z"/></symbol><symbol viewBox="0 0 24 24" id="plus" xmlns="http://www.w3.org/2000/svg"><path d="M10 4v6H4v4h6v6h4v-6h6v-4h-6V4h-4z"/></symbol><symbol viewBox="0 0 24 24" id="rotate" xmlns="http://www.w3.org/2000/svg"><path d="M12.076 2.61c-3.413-.083-6.735 1.745-8.428 4.773l2.62 1.465c1.268-2.268 4.176-3.623 6.728-3.137l.018.002.02.004c2.406.395 4.496 2.372 5.118 4.728l-2.039.44 4.23 3.181 2.544-4.64-1.782.383c-.874-3.596-3.883-6.43-7.564-7.045a9.086 9.086 0 00-1.465-.155zM3.656 9.934l-2.543 4.64 1.785-.385a9.516 9.516 0 007.567 7.053 9.51 9.51 0 009.877-4.605l-2.598-1.5a6.49 6.49 0 01-6.758 3.15 6.475 6.475 0 01-5.134-4.734l2.035-.438-4.23-3.181z"/></symbol></svg>